<svg width="60" height="39" viewBox="0 0 60 39" fill="none" xmlns="http://www.w3.org/2000/svg">
<path d="M60 19.6678C60 25.4625 46.5971 38.9602 30.067 38.9602C13.5352 38.9602 0.134033 27.1199 0.134033 19.6678C0.134033 13.8555 60 13.8555 60 19.6678Z" fill="#E1E8ED"/>
<path d="M60 19.6679H0.134033C0.134033 13.8573 13.537 0.375488 30.067 0.375488C46.5971 0.375488 60 13.8556 60 19.6679Z" fill="#292F33"/>
<path d="M57.8217 19.6681C57.8217 24.7613 45.3922 36.6226 30.0653 36.6226C14.7366 36.6226 2.31055 26.2134 2.31055 19.6681C2.31055 14.5608 14.7366 2.71533 30.0653 2.71533C45.3922 2.71358 57.8217 14.5608 57.8217 19.6681Z" fill="#F5F8FA"/>
<path d="M30.0812 34.5021C38.2738 34.5021 44.9152 27.8607 44.9152 19.6681C44.9152 11.4754 38.2738 4.83398 30.0812 4.83398C21.8885 4.83398 15.2471 11.4754 15.2471 19.6681C15.2471 27.8607 21.8885 34.5021 30.0812 34.5021Z" fill="#8B5E3C"/>
<path d="M30.0809 27.9249C34.6412 27.9249 38.338 24.2281 38.338 19.6678C38.338 15.1075 34.6412 11.4106 30.0809 11.4106C25.5206 11.4106 21.8237 15.1075 21.8237 19.6678C21.8237 24.2281 25.5206 27.9249 30.0809 27.9249Z" fill="#292F33"/>
<path d="M24.7897 17.9138C26.7269 17.9138 28.2974 16.3434 28.2974 14.4061C28.2974 12.4689 26.7269 10.8984 24.7897 10.8984C22.8524 10.8984 21.282 12.4689 21.282 14.4061C21.282 16.3434 22.8524 17.9138 24.7897 17.9138Z" fill="#F5F8FA"/>
</svg>
