<svg width="50" height="50" viewBox="0 0 50 50" fill="none" xmlns="http://www.w3.org/2000/svg">
<path d="M6.75336 12.692C8.05934 11.7792 10.028 11.9542 11.2007 12.9226L9.85577 10.9678C8.77347 9.42424 9.16109 7.75425 10.706 6.67056C12.251 5.59104 16.6288 8.49338 16.6288 8.49338C15.5368 6.93453 15.741 4.95889 17.2999 3.86547C18.8587 2.77623 21.0094 3.15274 22.1014 4.71436L36.5784 25.1655L34.7334 43.0533L19.3353 37.4376L5.90447 17.5241C4.80272 15.9555 5.1834 13.7923 6.75336 12.692Z" fill="#EF9645"/>
<path d="M3.74421 24.0691C3.74421 24.0691 2.17148 21.7767 4.46528 20.2054C6.75631 18.634 8.32766 20.925 8.32766 20.925L15.6231 31.5646C15.8746 31.145 16.1497 30.731 16.4567 30.3225L6.33117 15.558C6.33117 15.558 4.75982 13.267 7.05224 11.6956C9.34327 10.1243 10.9146 12.4153 10.9146 12.4153L20.4386 26.3046C20.7928 26.0156 21.1555 25.7252 21.5292 25.4404L10.4881 9.33652C10.4881 9.33652 8.91674 7.04549 11.2092 5.47414C13.5002 3.90279 15.0715 6.19382 15.0715 6.19382L26.1126 22.2949C26.5183 22.0462 26.9199 21.8309 27.3228 21.603L17.0027 6.55366C17.0027 6.55366 15.4314 4.26263 17.7224 2.69129C20.0134 1.11994 21.5848 3.41097 21.5848 3.41097L32.4967 19.3245L34.1556 21.7447C27.2811 26.4602 26.6267 35.3311 30.5544 41.0594C31.3394 42.2056 32.4856 41.4206 32.4856 41.4206C27.7715 34.5448 29.2109 26.8186 36.0867 22.1046L34.0597 11.9596C34.0597 11.9596 33.3025 9.2865 35.9742 8.52792C38.6473 7.77073 39.4059 10.4438 39.4059 10.4438L41.7469 17.3961C42.675 20.1526 43.6628 22.8993 44.9702 25.4974C48.6617 32.8331 46.4568 41.95 39.4962 46.7251C31.9034 51.931 21.5236 49.9957 16.3164 42.4043L3.74421 24.0691Z" fill="#FFDC5D"/>
<path d="M16.6722 44.5009C11.1149 44.5009 5.49915 38.8852 5.49915 33.3278C5.49915 32.5595 4.93646 31.9385 4.16815 31.9385C3.39985 31.9385 2.72046 32.5595 2.72046 33.3278C2.72046 41.6639 8.33618 47.2796 16.6722 47.2796C17.4406 47.2796 18.0616 46.6002 18.0616 45.8319C18.0616 45.0636 17.4406 44.5009 16.6722 44.5009Z" fill="#5DADEC"/>
<path d="M9.72541 47.2212C5.55737 47.2212 2.77869 44.4425 2.77869 40.2745C2.77869 39.5062 2.15765 38.8851 1.38934 38.8851C0.621037 38.8851 0 39.5062 0 40.2745C0 45.8319 4.16803 49.9999 9.72541 49.9999C10.4937 49.9999 11.1147 49.3789 11.1147 48.6105C11.1147 47.8422 10.4937 47.2212 9.72541 47.2212ZM33.3442 2.76221C32.5773 2.76221 31.9549 3.38463 31.9549 4.15155C31.9549 4.91847 32.5773 5.54089 33.3442 5.54089C38.9016 5.54089 44.459 10.5272 44.459 16.6556C44.459 17.4226 45.0814 18.045 45.8483 18.045C46.6153 18.045 47.2377 17.4226 47.2377 16.6556C47.2377 8.9948 41.6803 2.76221 33.3442 2.76221Z" fill="#5DADEC"/>
<path d="M40.291 0.0419922C39.524 0.0419922 38.9016 0.606066 38.9016 1.37298C38.9016 2.1399 39.524 2.82068 40.291 2.82068C44.459 2.82068 47.1793 5.91197 47.1793 9.70905C47.1793 10.476 47.8587 11.0984 48.627 11.0984C49.3953 11.0984 49.958 10.476 49.958 9.70905C49.958 4.37813 45.8483 0.0419922 40.291 0.0419922Z" fill="#5DADEC"/>
</svg>
