<svg width="61" height="47" viewBox="0 0 61 47" fill="none" xmlns="http://www.w3.org/2000/svg">
<path d="M28.9975 23.0708C28.9975 23.0708 18.4177 32.3227 15.4197 35.0558C13.0988 37.1661 16.9634 41.1921 19.165 39.3572C25.0119 34.4716 30.5553 30.8491 30.5553 30.8491L31.1991 31.7718C28.9028 33.1577 22.9664 36.7854 19.886 39.5571C17.5634 41.6447 21.2315 45.79 23.5576 43.7059C26.7538 40.8395 34.0743 35.6978 34.0743 35.6978L34.7198 36.3714C32.8252 37.5626 29.8571 39.7747 25.9749 43.3147C23.6383 45.4461 27.0608 47.674 29.0694 46.0057C34.5356 41.4693 34.7391 38.3169 40.7544 35.7434C49.9343 31.8174 28.9975 23.0708 28.9975 23.0708Z" fill="#EF9645"/>
<path d="M51.7656 6.99532C53.3111 6.22697 54.6654 7.24793 55.46 8.84254C56.2459 10.4406 59.9018 17.64 60.6403 19.1382C61.3858 20.6328 60.9754 22.8273 59.379 23.6167C57.7809 24.4114 55.46 25.4657 53.9549 28.0234C53.1392 29.4163 49.7517 33.0879 40.5718 37.0209C34.56 39.5856 29.7569 43.9291 27.8343 45.4412C26.28 46.6657 23.1452 44.3238 25.4783 42.1959C29.3622 38.6523 32.3304 36.4402 34.2232 35.2526L33.5777 34.5755C33.5777 34.5755 25.8923 39.9364 22.6347 42.7327C20.4226 44.636 17.4808 41.0609 19.8051 38.9751C22.8873 36.2034 28.4044 32.0388 30.7007 30.653L30.0586 29.725C30.0586 29.725 24.0416 33.6387 18.1912 38.5313C16.2388 40.1627 13.1969 36.4981 15.516 34.3843C18.5158 31.6564 24.3626 26.7656 27.9588 24.7377L27.615 23.6694C27.615 23.6694 21.9698 26.8358 17.0966 31.5529C15.3529 33.2387 11.8795 30.118 14.4214 27.5304C20.4945 21.352 28.3816 17.6909 30.4797 16.2805C33.297 14.3859 34.7793 13.2036 33.297 12.5387C31.0621 11.5335 27.3396 8.00927 25.9116 5.15337C24.0644 1.45894 26.6835 -1.46011 29.6043 1.45894C31.4515 3.30616 35.1459 6.99883 38.8369 6.99883C43.7996 6.99883 44.5592 8.84605 48.0712 8.84605C49.9201 8.84254 51.7656 6.99532 51.7656 6.99532Z" fill="#FFCC4D"/>
<path d="M43.1158 18.1011C42.5299 18.1028 40.5914 17.838 38.4074 16.8293C36.5251 15.9627 35.0656 14.3909 33.8516 13.0717C33.9201 13.3541 33.7376 13.6927 33.3552 14.0891C34.5498 15.4785 36.3777 17.0643 38.0109 17.8537C39.909 18.7747 42.072 19.2396 43.0474 19.1992C44.0508 19.1571 43.7227 18.1081 43.1158 18.1011ZM46.9172 33.1525C42.9456 31.3035 39.7915 29.7598 45.2086 31.9947C47.4487 32.9156 50.8116 28.3809 47.5154 26.8775C40.8809 23.8497 20.2265 12.5454 20.2265 12.5454C20.2265 12.5454 9.05547 25.5917 10.4378 26.4285C11.8219 27.26 12.399 33.1805 20.3756 38.3889C27.9153 43.3148 32.6114 45.4321 34.3762 46.3145C38.0723 48.1617 40.4756 43.3709 37.5917 42.0833C32.6219 39.8624 32.7956 39.7273 40.0792 42.7534C42.7755 43.8761 45.0419 38.8064 42.193 37.524C37.9443 35.6137 37.5619 35.3821 44.3665 38.4485C46.8839 39.5765 49.7573 34.4769 46.9172 33.1525Z" fill="#EF9645"/>
<path d="M11.6131 7.77069C10.136 6.87778 8.17475 7.32161 7.25377 8.84955C6.3328 10.3775 2.29278 17.0647 1.43145 18.4979C0.568368 19.9293 0.79291 22.1449 2.3191 23.0659C3.84529 23.9886 6.61172 25.6569 7.99582 26.4902C9.37991 27.327 15.0321 34.3439 23.191 39.2593C31.3447 44.1852 34.3585 45.0237 36.1935 45.7447C38.0354 46.4639 40.4685 42.7923 37.5846 41.5065C32.6078 39.2821 29.1011 37.2296 27.3065 35.8841L27.8643 34.8579C27.8643 34.8579 32.8411 38.5769 40.1212 41.6082C42.8175 42.7309 45.0155 38.5313 42.1684 37.2454C37.9179 35.3351 32.6745 32.1687 30.501 30.5969L31.1079 29.5952C31.1079 29.5952 38.0301 33.9703 44.8348 37.0367C47.3452 38.1682 49.452 33.9036 46.6119 32.5774C42.6473 30.7284 37.0548 27.3936 33.641 25.0745L34.234 24.1974C34.234 24.1974 40.5755 28.6725 45.9961 30.9038C48.2363 31.8301 50.8729 27.6392 47.5732 26.1306C40.9439 23.1045 33.427 17.8085 31.4553 16.2296C29.8449 14.9368 29.3835 11.9967 33.3007 10.6897C38.8406 8.84253 40.6878 5.14986 40.6878 3.30264C40.6878 0.690583 38.274 -0.461953 36.9969 1.45543C33.3007 6.99532 31.443 5.10776 27.7643 6.99532C23.3542 9.26004 18.1757 11.6651 15.1707 9.85122C13.8848 9.0776 11.6131 7.77069 11.6131 7.77069Z" fill="#FFDC5D"/>
<path d="M32.4148 12.0561L41.9333 7.29861C41.0965 7.11967 40.1089 6.99688 38.8405 6.99688C35.1496 6.99688 31.4552 3.3042 29.608 1.45699C26.6872 -1.46206 24.0681 1.45699 25.9153 5.15142C27.1696 7.65647 30.1834 10.6738 32.4148 12.0561Z" fill="#FFCC4D"/>
</svg>
