<svg width="54" height="55" viewBox="0 0 54 55" fill="none" xmlns="http://www.w3.org/2000/svg">
<path d="M44.4707 31.9623V28.8446C46.0589 27.2087 49.0988 24.2546 49.8564 20.4699C50.0819 20.5953 49.9437 20.6763 50.1947 20.6763C51.3985 20.6763 52.1895 19.1151 52.1895 17.187C52.1895 15.2907 51.1476 13.7548 49.9675 13.7072C50.1947 12.8877 50.3042 11.7918 50.3042 10.3846C50.3042 5.68984 46.2559 0.0532227 37.1966 0.0532227C29.1475 0.0532227 24.1033 5.68984 24.1033 10.3846C24.1033 11.7473 24.1843 12.8654 24.3288 13.731C23.2218 13.8978 22.3483 15.3717 22.3483 17.1854C22.3483 19.1135 23.3235 20.6747 24.5289 20.6747C24.7783 20.6747 24.4193 20.5937 24.6433 20.4683C25.4009 24.2546 28.5884 27.2071 30.1767 28.8446V31.778C23.8238 32.5594 19.0591 35.9519 19.0591 39.3459V40.6324C19.0591 41.922 20.3662 41.922 21.6542 41.922H51.4017C52.6929 41.922 54 41.922 54 40.6324V39.3459C54 36.1679 49.2354 32.9978 44.4707 31.9623Z" fill="#55ACEE"/>
<path d="M25.4119 44.6678V41.5501C27.0001 39.9143 30.0399 36.9602 30.7975 33.1754C31.0231 33.3009 30.8849 33.3819 31.1358 33.3819C32.3397 33.3819 33.1306 31.8207 33.1306 29.8926C33.1306 27.9962 32.0888 26.4604 30.9087 26.4128C31.1358 25.5932 31.2454 24.4974 31.2454 23.0902C31.2454 18.3954 27.197 12.7588 18.1378 12.7588C10.0871 12.7588 5.04445 18.3954 5.04445 23.0902C5.04445 24.4529 5.12545 25.571 5.26998 26.4366C4.16298 26.6034 3.28946 28.0772 3.28946 29.891C3.28946 31.8191 4.26463 33.3803 5.47009 33.3803C5.71944 33.3803 5.36051 33.2993 5.58444 33.1738C6.34203 36.9602 9.5296 39.9127 11.1178 41.5501V44.4836C4.76492 45.265 0.000244141 48.6574 0.000244141 52.0515V53.3395C0.000244141 54.6276 1.30735 54.6276 2.5954 54.6276H32.3429C33.6341 54.6276 34.9412 54.6276 34.9412 53.338V52.0499C34.9412 48.8734 30.1765 45.7034 25.4119 44.6678Z" fill="#226699"/>
</svg>
