<svg width="216" height="34" viewBox="0 0 216 34" fill="none" xmlns="http://www.w3.org/2000/svg">
<g clip-path="url(#clip0_10024_82122)">
<path d="M118.174 27.6405L112.937 12.5908L117.158 12.6186L120.269 21.5761L123.427 12.6186H127.014L130.172 21.5761L133.283 12.6186H137.504L132.267 27.6405H128.966L125.22 17.8485L121.475 27.6405H118.174Z" fill="#353535"/>
<path d="M103.8 28.0578C102.044 28.0578 100.494 27.7286 99.1499 27.0702C97.8169 26.4026 96.7693 25.4892 96.0079 24.3301C95.2565 23.1618 94.8809 21.8265 94.8809 20.3243C94.8809 18.6831 95.2511 17.2551 95.9917 16.0403C96.7323 14.8256 97.7537 13.8844 99.0551 13.2168C100.356 12.5399 101.853 12.2014 103.546 12.2014C105.345 12.2014 106.873 12.5723 108.132 13.3141C109.391 14.056 110.323 15.0991 110.926 16.4437C111.529 17.7882 111.74 19.3692 111.561 21.1867H107.292V19.7958C107.292 18.2658 107.011 17.167 106.45 16.4993C105.9 15.8224 104.996 15.484 103.737 15.484C102.266 15.484 101.181 15.8781 100.483 16.6662C99.7956 17.4451 99.4516 18.5996 99.4516 20.1296C99.4516 21.5298 99.7956 22.6147 100.483 23.3843C101.181 24.1447 102.202 24.5249 103.546 24.5249C104.393 24.5249 105.117 24.3626 105.72 24.0381C106.323 23.7135 106.783 23.2452 107.101 22.6332L111.418 23.7181C110.772 25.0905 109.751 26.1569 108.355 26.9172C106.968 27.6776 105.45 28.0578 103.8 28.0578ZM98.1185 21.1867V18.3771H109.482V21.1867H98.1185Z" fill="#353535"/>
<path d="M86.7588 27.6405V12.6187H91.0757V27.6405H86.7588Z" fill="#353535"/>
<path d="M73.0356 27.6405L66.8145 12.6187H71.1311L75.1939 23.0227L79.2566 12.6187H83.5735L77.3519 27.6405H73.0356Z" fill="#353535"/>
<path d="M56.8345 28.0578C55.11 28.0578 53.5971 27.7193 52.2957 27.0424C50.9943 26.3655 49.9787 25.4336 49.2486 24.2467C48.5292 23.0505 48.1694 21.6781 48.1694 20.1296C48.1694 18.5625 48.5397 17.1855 49.2804 15.9986C50.0209 14.8024 51.0419 13.8705 52.3433 13.2029C53.6447 12.5352 55.1417 12.2014 56.8345 12.2014C58.5591 12.2014 60.072 12.5399 61.3734 13.2168C62.6853 13.8937 63.7063 14.8302 64.4363 16.0264C65.1663 17.2133 65.5314 18.5811 65.5314 20.1296C65.5314 21.6874 65.1611 23.0644 64.4204 24.2606C63.6904 25.4475 62.6694 26.3794 61.3575 27.0563C60.0561 27.724 58.5485 28.0578 56.8345 28.0578ZM56.8345 24.5249C58.2205 24.5249 59.2521 24.1169 59.9292 23.3009C60.6169 22.4756 60.9607 21.4185 60.9607 20.1296C60.9607 18.7943 60.6116 17.728 59.9134 16.9305C59.2256 16.1331 58.1993 15.7343 56.8345 15.7343C55.8929 15.7343 55.1205 15.9198 54.5175 16.2907C53.9144 16.6616 53.4648 17.1762 53.1685 17.8346C52.8829 18.493 52.74 19.258 52.74 20.1296C52.74 21.4741 53.0839 22.5451 53.7716 23.3426C54.4698 24.1308 55.4908 24.5249 56.8345 24.5249Z" fill="#353535"/>
<path d="M40.9333 27.6405V20.5469C40.9333 20.2038 40.9122 19.7679 40.8698 19.2394C40.8276 18.7016 40.6953 18.1638 40.4731 17.6259C40.2509 17.0881 39.8859 16.6384 39.3781 16.2768C38.8808 15.9151 38.1719 15.7343 37.2515 15.7343C36.8812 15.7343 36.4844 15.7853 36.0612 15.8873C35.638 15.9893 35.2413 16.1887 34.871 16.4854C34.5006 16.7729 34.1938 17.1994 33.9505 17.765C33.7177 18.3307 33.6014 19.0818 33.6014 20.0183L31.1256 18.989C31.1256 17.8021 31.4007 16.6894 31.9508 15.6509C32.501 14.6123 33.3263 13.7731 34.4266 13.1333C35.5375 12.4935 36.9341 12.1736 38.6163 12.1736C39.9599 12.1736 41.055 12.3729 41.9014 12.7717C42.7478 13.1704 43.4038 13.6758 43.8693 14.2878C44.3454 14.8998 44.684 15.5396 44.885 16.2072C45.086 16.8656 45.2077 17.4683 45.25 18.0154C45.2924 18.5625 45.3135 18.9612 45.3135 19.2116V27.6405H40.9333ZM29.2212 27.6405V12.6187H33.0617V17.5981H33.6014V27.6405H29.2212Z" fill="#353535"/>
<path d="M20.7551 27.6405V20.5469C20.7551 20.2038 20.734 19.7679 20.6916 19.2394C20.6493 18.7016 20.517 18.1638 20.2949 17.6259C20.0727 17.0881 19.7077 16.6384 19.1998 16.2768C18.7026 15.9151 17.9937 15.7343 17.0732 15.7343C16.7029 15.7343 16.3062 15.7853 15.883 15.8873C15.4598 15.9893 15.063 16.1887 14.6927 16.4854C14.3224 16.7729 14.0156 17.1994 13.7722 17.765C13.5395 18.3307 13.4231 19.0818 13.4231 20.0183L10.9474 18.989C10.9474 17.8021 11.2224 16.6894 11.7726 15.6509C12.3228 14.6123 13.148 13.7731 14.2483 13.1333C15.3593 12.4935 16.7559 12.1736 18.438 12.1736C19.7817 12.1736 20.8768 12.3729 21.7232 12.7717C22.5696 13.1704 23.2255 13.6758 23.6911 14.2878C24.1672 14.8998 24.5057 15.5396 24.7067 16.2072C24.9078 16.8656 25.0294 17.4683 25.0718 18.0154C25.1141 18.5625 25.1353 18.9612 25.1353 19.2116V27.6405H20.7551ZM9.04297 27.6405V12.6187H12.8835V17.5981H13.4231V27.6405H9.04297Z" fill="#353535"/>
<path d="M0 27.6405V12.6187H4.31668V27.6405H0Z" fill="#353535"/>
<path d="M207.953 0.594971H147.435C143.175 0.594971 139.721 4.05459 139.721 8.32224V25.6777C139.721 29.9454 143.175 33.405 147.435 33.405H207.953C212.214 33.405 215.667 29.9454 215.667 25.6777V8.32224C215.667 4.05459 212.214 0.594971 207.953 0.594971Z" fill="#C63031"/>
<path d="M147.436 27.2232V7.19409H151.752V15.4283H161.972V7.19409H166.289V27.2232H161.972V18.9612H151.752V27.2232H147.436Z" fill="white"/>
<path d="M177.615 27.223C176.271 27.223 175.176 27.0236 174.33 26.6249C173.483 26.2262 172.822 25.7208 172.346 25.1088C171.88 24.4968 171.547 23.8616 171.346 23.2033C171.145 22.5356 171.023 21.9283 170.981 21.3812C170.938 20.8341 170.917 20.4354 170.917 20.185V11.7561H175.298V18.8497C175.298 19.1928 175.318 19.6333 175.361 20.1711C175.403 20.6996 175.536 21.2328 175.758 21.7706C175.98 22.3085 176.34 22.7582 176.837 23.1198C177.345 23.4815 178.059 23.6623 178.98 23.6623C179.35 23.6623 179.746 23.6113 180.17 23.5093C180.593 23.4073 180.99 23.2126 181.36 22.9251C181.731 22.6284 182.032 22.1972 182.264 21.6316C182.508 21.0566 182.629 20.3056 182.629 19.3783L185.106 20.4076C185.106 21.5945 184.83 22.7072 184.28 23.7457C183.73 24.7843 182.899 25.6235 181.788 26.2633C180.688 26.9031 179.297 27.223 177.615 27.223ZM183.169 26.7779V21.7985H182.629V11.7561H186.978V26.7779H183.169Z" fill="white"/>
<path d="M200.05 27.2232C198.346 27.2232 196.923 26.8755 195.781 26.18C194.638 25.4846 193.776 24.5387 193.194 23.3426C192.622 22.1464 192.337 20.7972 192.337 19.295C192.337 17.7928 192.622 16.4437 193.194 15.2475C193.765 14.0513 194.607 13.1055 195.717 12.41C196.828 11.7146 198.198 11.3668 199.828 11.3668C201.468 11.3668 202.896 11.7099 204.112 12.3961C205.329 13.0823 206.271 14.0235 206.937 15.2197C207.614 16.4066 207.953 17.765 207.953 19.295C207.953 20.7972 207.62 22.1464 206.953 23.3426C206.298 24.5387 205.376 25.4846 204.192 26.18C203.007 26.8755 201.626 27.2232 200.05 27.2232ZM191.606 26.8059V6.77686H195.955V16.5132H195.416V26.8059H191.606ZM199.352 23.8572C200.283 23.8572 201.044 23.6532 201.637 23.2452C202.229 22.8372 202.668 22.2901 202.954 21.6039C203.24 20.9085 203.382 20.1388 203.382 19.295C203.382 18.4605 203.234 17.7001 202.938 17.0139C202.642 16.3185 202.181 15.7667 201.557 15.3587C200.944 14.9415 200.155 14.7328 199.193 14.7328C198.293 14.7328 197.563 14.9229 197.003 15.3031C196.453 15.6833 196.051 16.2165 195.797 16.9027C195.542 17.5888 195.416 18.3863 195.416 19.295C195.416 20.2037 195.542 21.0012 195.797 21.6874C196.051 22.3736 196.463 22.9067 197.034 23.2869C197.616 23.6671 198.389 23.8572 199.352 23.8572Z" fill="white"/>
</g>
<defs>
<clipPath id="clip0_10024_82122">
<rect width="216" height="34" fill="white"/>
</clipPath>
</defs>
</svg>
